<svg width="70" height="24" viewBox="0 0 70 24" fill="none" xmlns="http://www.w3.org/2000/svg">
<g clip-path="url(#clip0_2022_1143)">
<path d="M27.9129 9.18424H24.1981V9.27997C24.1981 9.70168 24.0596 10.106 23.8887 10.55C23.8887 10.55 20.5845 18.942 20.4592 19.2655C20.3232 18.947 16.5736 10.1919 16.5736 10.1919L16.5114 10.0524C16.3986 9.80236 16.2841 9.5457 16.2841 9.27997V9.20405L16.2111 9.18424H12.177V9.3691L12.2243 9.39221C12.9906 9.67032 13.1034 10.6854 13.1034 11.268L13.1018 20.0454C13.1018 21.0629 12.9915 22.2001 12.1646 22.923L12.1405 22.9486V23.1153H15.7185V22.9321L15.6737 22.9098C14.8907 22.5641 14.8252 21.6827 14.8252 20.8434V20.5868L14.8269 20.3392C14.8269 20.3392 14.8327 12.3648 14.8327 11.6955C15.0939 12.3177 18.6877 20.8096 18.6877 20.8096C19.2118 22.0161 19.5245 22.5855 20.5654 23.372L20.6433 23.4314C20.6433 23.4314 24.9843 12.3854 25.2514 11.7004C25.2514 12.4201 25.2481 21.4071 25.2481 21.4071C25.2481 22.0557 25.1486 22.6862 24.4394 22.9098L24.3864 22.9247V23.1153H28.4097V22.9396L28.3782 22.9164C27.6583 22.4163 27.3356 21.7768 27.3356 20.8418V10.5542C27.3356 10.3239 27.3804 9.55313 27.9378 9.39221L27.99 9.37405V9.18424H27.9154H27.9129Z" fill="#231F20"/>
<path d="M30.8224 16.7031C30.8224 12.8599 33.955 9.74211 37.8241 9.74211C39.8162 9.74211 41.6127 10.574 42.8858 11.9084C41.4858 9.7842 39.0731 8.38292 36.3237 8.38292C31.9877 8.38292 28.4761 11.8754 28.4761 16.1915C28.4761 20.5075 31.9877 24 36.3237 24C37.202 24 38.0472 23.8473 38.8351 23.5849C38.5025 23.6344 38.1674 23.6658 37.8232 23.6658C33.9542 23.6658 30.8216 20.5488 30.8216 16.7023L30.8224 16.7031Z" fill="#EE3E33"/>
<path d="M38.3043 10.5938C35.8858 10.3726 33.6722 11.5923 32.5011 13.5317C33.5893 12.2831 35.2414 11.5478 37.0229 11.7112C39.9581 11.9752 42.1211 14.5616 41.8516 17.4772C41.5845 20.3994 38.9885 22.55 36.05 22.2835C35.647 22.2472 35.2538 22.1622 34.8814 22.0392C35.5773 22.4073 36.3569 22.6458 37.1913 22.725C40.5586 23.027 43.5377 20.562 43.8446 17.2098C44.1556 13.8626 41.6741 10.8983 38.3051 10.5938H38.3043Z" fill="#EE3E33"/>
<path d="M51.4541 15.0014C52.7753 14.3751 53.4272 13.4888 53.4272 12.293C53.4272 10.3478 51.7535 9.18424 48.9543 9.18424H43.8918V9.3691L43.9382 9.39221C44.8539 9.72808 44.8323 10.9726 44.8199 11.8836L44.8165 12.1915V20.085L44.8199 20.3722C44.8306 21.3006 44.8439 22.5674 43.9366 22.9098L43.8918 22.9272V23.1153H47.7891C49.2737 23.1211 50.8064 23.1228 52.1848 22.4584C53.7474 21.7157 54.7509 20.2509 54.7509 18.725C54.7509 16.9045 53.4902 15.4991 51.4541 15.0014ZM47.1115 10.7687C47.2325 10.7563 48.4567 10.6276 48.4567 10.6276C49.1692 10.5566 49.8808 10.7762 50.3668 11.2094C50.769 11.5725 50.9822 12.0668 50.9822 12.6338C50.9822 14.6342 48.2734 14.7349 47.731 14.7349H47.1106V10.7696L47.1115 10.7687ZM51.5155 20.7378C50.8943 21.2998 49.9322 21.5622 48.8805 21.4599C48.8805 21.4599 47.4233 21.3262 47.1115 21.2998V16.26C47.2408 16.255 48.5139 16.1816 48.5139 16.1816C49.7074 16.1155 50.8254 16.4564 51.5055 17.0968C52.0139 17.5729 52.2702 18.1853 52.2702 18.9156C52.2702 19.646 52.0164 20.2897 51.5147 20.737L51.5155 20.7378Z" fill="#231F20"/>
<path d="M59.2843 9.18424H55.2087V9.3691L55.2577 9.39221C56.1692 9.72808 56.1526 10.9816 56.1393 11.8952L56.136 12.2129V20.1114L56.1393 20.3879C56.1484 21.3155 56.165 22.5863 55.2577 22.9098L55.2087 22.9272V23.1153H59.3582V22.9272L59.3076 22.9098C58.401 22.5674 58.4176 21.3089 58.4268 20.3879L58.4301 20.1114V12.2129L58.4268 11.934C58.4176 11.0039 58.4019 9.73386 59.3076 9.38808L59.3582 9.3691V9.18424H59.2843Z" fill="#231F20"/>
<path d="M60.2108 12.5703C60.2108 15.0064 62.3763 15.9686 64.2913 16.8228C65.9161 17.5432 67.4529 18.2307 67.4529 19.6905C67.4529 21.0629 65.7486 21.7958 64.5186 21.7958C62.9121 21.7958 61.2077 21.1504 59.9545 20.0743L59.7836 19.9266L60.4529 22.8026L60.4919 22.8158C61.639 23.2366 62.9121 23.4504 64.2855 23.4504C67.4388 23.4504 70.0016 21.4706 70.0016 19.0402C70.0016 16.9086 67.8386 15.9249 65.9294 15.0584C64.2996 14.3181 62.7586 13.6175 62.7586 12.3384C62.7586 10.9849 64.1802 10.5063 65.401 10.5063C66.6219 10.5063 67.8801 11.013 68.6539 11.8028L68.7783 11.934V9.32949L68.7285 9.31463C67.7382 9.00681 66.6741 8.84837 65.5711 8.84837C63.0954 8.84837 60.2116 9.82051 60.2116 12.5703H60.2108Z" fill="#231F20"/>
<path d="M4.22156 2.39076H1.34858V0H0V6.12338H1.34858V3.58737H4.22156V6.12338H5.57014V0H4.22156V2.39076Z" fill="#002D74"/>
<path d="M33.5154 0.349907C33.2334 0.63627 33.2226 1.05797 33.2144 1.30307V6.12338H34.5621V4.16835H37.4243V6.12338H38.7762V0H34.5712C34.1731 0.00495152 33.7966 0.0610687 33.5154 0.349907ZM34.9046 1.19662H37.4243V2.97421H34.5621V1.54652C34.5671 1.47638 34.553 1.34929 34.6127 1.27337C34.6766 1.19332 34.7769 1.20157 34.9046 1.19662Z" fill="#002D74"/>
<path d="M23.9742 0H19.7617V6.12338H21.1111V1.19662H23.6407C23.7668 1.20157 23.8688 1.19332 23.9319 1.27337C23.9932 1.34929 23.9825 1.47638 23.9841 1.54652V6.1242H25.3319V1.30307C25.3244 1.05797 25.3153 0.63627 25.0325 0.349907C24.7496 0.0602434 24.3764 0.00412626 23.9742 0Z" fill="#002D74"/>
<path d="M17.2205 4.57685C17.2172 4.64782 17.2296 4.77244 17.1682 4.84753C17.1052 4.92841 17.0024 4.92181 16.8771 4.92428H14.3483V0H12.9998V6.12338H17.2114C17.6128 6.11925 17.986 6.05983 18.2672 5.77182C18.5492 5.48463 18.5608 5.0654 18.5691 4.81948V0H17.2205V4.57685Z" fill="#002D74"/>
<path d="M32.0955 1.30307C32.0897 1.05797 32.0789 0.63627 31.7969 0.349907C31.5166 0.0602434 31.1409 0.00412626 30.742 0H26.5287V6.12338H30.742C31.1409 6.11925 31.5158 6.05983 31.7969 5.77182C32.0789 5.48463 32.0897 5.0654 32.0955 4.81948V1.30307ZM30.7527 4.57685C30.7469 4.64782 30.7602 4.77244 30.7013 4.84753C30.6375 4.92841 30.5354 4.92181 30.4085 4.92428H27.8773V1.19662H30.4085C30.5354 1.20157 30.6375 1.19332 30.7013 1.27337C30.761 1.34929 30.7469 1.47638 30.7527 1.54652V4.57768V4.57685Z" fill="#002D74"/>
<path d="M9.28496 2.67877L7.64942 0H6.04871L8.5634 3.86136V6.12338H10.0049V3.86136L12.5237 0H10.9205L9.28496 2.67877Z" fill="#002D74"/>
<path d="M41.5662 0H40.1273V6.12338H41.5662V0Z" fill="#002D74"/>
</g>
<defs>
<clipPath id="clip0_2022_1143">
<rect width="70" height="24" fill="white"/>
</clipPath>
</defs>
</svg>
