<svg width="30" height="30" viewBox="0 0 30 30" fill="none" xmlns="http://www.w3.org/2000/svg">
<path d="M25.6066 4.3934C31.4644 10.2513 31.4644 19.7487 25.6066 25.6066C19.7487 31.4644 10.2512 31.4644 4.3934 25.6066C-1.46447 19.7487 -1.46447 10.2512 4.3934 4.3934C10.2513 -1.46447 19.7487 -1.46447 25.6066 4.3934Z" fill="#F2F2F2"/>
<mask id="mask0_2121_2095" style="mask-type:alpha" maskUnits="userSpaceOnUse" x="0" y="0" width="30" height="30">
<path d="M25.6066 4.3934C31.4644 10.2513 31.4644 19.7487 25.6066 25.6066C19.7487 31.4644 10.2512 31.4644 4.3934 25.6066C-1.46447 19.7487 -1.46447 10.2512 4.3934 4.3934C10.2513 -1.46447 19.7487 -1.46447 25.6066 4.3934Z" fill="#F6F8FC"/>
</mask>
<g mask="url(#mask0_2121_2095)">
<path d="M14.9999 19.375C21.2155 19.375 26.2499 22.1719 26.2499 25.625V31.25H3.74988V25.625C3.74988 22.1719 8.78425 19.375 14.9999 19.375Z" fill="#111111" fill-opacity="0.2"/>
<path d="M18.5355 8.96447C20.4882 10.9171 20.4882 14.0829 18.5355 16.0355C16.5829 17.9882 13.4171 17.9882 11.4645 16.0355C9.51184 14.0829 9.51184 10.9171 11.4645 8.96447C13.4171 7.01184 16.5829 7.01184 18.5355 8.96447Z" fill="#111111" fill-opacity="0.2"/>
</g>
</svg>
