<svg width="17" height="16" viewBox="0 0 17 16" fill="none" xmlns="http://www.w3.org/2000/svg">
<path d="M13 8.5H16" stroke="#1D40A3" stroke-width="1.5" stroke-linecap="round" stroke-linejoin="round"/>
<path d="M14.5 7V10" stroke="#1D40A3" stroke-width="1.5" stroke-linecap="round" stroke-linejoin="round"/>
<path d="M7.25 10C9.32107 10 11 8.32107 11 6.25C11 4.17893 9.32107 2.5 7.25 2.5C5.17893 2.5 3.5 4.17893 3.5 6.25C3.5 8.32107 5.17893 10 7.25 10Z" stroke="#1D40A3" stroke-width="1.5" stroke-miterlimit="10"/>
<path d="M1.88745 12.5C2.54449 11.7169 3.36506 11.0872 4.29149 10.6552C5.21792 10.2231 6.22774 9.99927 7.24995 9.99927C8.27217 9.99927 9.28198 10.2231 10.2084 10.6552C11.1348 11.0872 11.9554 11.7169 12.6125 12.5" stroke="#1D40A3" stroke-width="1.5" stroke-linecap="round" stroke-linejoin="round"/>
</svg>
