<svg width="32" height="32" viewBox="0 0 32 32" fill="none" xmlns="http://www.w3.org/2000/svg">
<g opacity="0.5">
<path d="M29.5862 23.4981L18.5987 4.49815C18.3356 4.04119 17.9568 3.66162 17.5003 3.3977C17.0439 3.13377 16.5259 2.99481 15.9987 2.99481C15.4714 2.99481 14.9535 3.13377 14.497 3.3977C14.0406 3.66162 13.6617 4.04119 13.3987 4.49815L2.41118 23.4981C2.14426 23.9528 2.00241 24.47 2.00003 24.9972C1.99765 25.5244 2.13482 26.0428 2.39762 26.4999C2.66041 26.9569 3.03947 27.3362 3.49631 27.5994C3.95314 27.8625 4.47148 28.0001 4.99868 27.9981H26.9987C27.5259 28.0001 28.0442 27.8625 28.501 27.5994C28.9579 27.3362 29.3369 26.9569 29.5997 26.4999C29.8625 26.0428 29.9997 25.5244 29.9973 24.9972C29.9949 24.47 29.8531 23.9528 29.5862 23.4981Z" fill="#A0A9C0"/>
<path fill-rule="evenodd" clip-rule="evenodd" d="M13.7314 4.03292C13.9489 3.78195 14.2074 3.56781 14.4971 3.40026C14.6683 3.30129 14.8481 3.21989 15.0338 3.1568C14.8481 3.21989 14.6683 3.30129 14.4971 3.40026C14.2074 3.56781 13.9489 3.78195 13.7314 4.03292ZM15.9988 2.99738C15.9988 2.99738 15.9988 2.99738 15.9988 2.99738C16.0318 2.99738 16.0647 2.99792 16.0975 2.999C16.0647 2.99792 16.0318 2.99738 15.9988 2.99738ZM15.2917 12.2936C15.1042 12.4811 14.9988 12.7355 14.9988 13.0007V18.0007C14.9988 18.2659 15.1042 18.5203 15.2917 18.7078C15.4792 18.8954 15.7336 19.0007 15.9988 19.0007C16.264 19.0007 16.5184 18.8954 16.7059 18.7078C16.8934 18.5203 16.9988 18.2659 16.9988 18.0007V13.0007C16.9988 12.7355 16.8934 12.4811 16.7059 12.2936C16.5184 12.1061 16.264 12.0007 15.9988 12.0007C15.7336 12.0007 15.4792 12.1061 15.2917 12.2936ZM15.1654 23.7479C15.4121 23.9127 15.7021 24.0007 15.9988 24.0007C16.3966 24.0007 16.7782 23.8427 17.0595 23.5614C17.3408 23.2801 17.4988 22.8985 17.4988 22.5007C17.4988 22.204 17.4108 21.914 17.246 21.6674C17.0812 21.4207 16.8469 21.2284 16.5728 21.1149C16.2987 21.0014 15.9971 20.9717 15.7062 21.0295C15.4152 21.0874 15.1479 21.2303 14.9381 21.4401C14.7284 21.6498 14.5855 21.9171 14.5276 22.2081C14.4697 22.4991 14.4995 22.8006 14.613 23.0747C14.7265 23.3488 14.9188 23.5831 15.1654 23.7479Z" fill="white"/>
</g>
</svg>
